{
  "asset": {
    "generator": "Khronos glTF Blender I/O v4.0.44",
    "version": "2.0"
  },
  "scene": 0,
  "scenes": [
    {
      "name": "Scene",
      "nodes": [
        10
      ]
    }
  ],
  "nodes": [
    {
      "name": "Clavo_4",
      "scale": [
        0.4112488031387329,
        0.41124874353408813,
        0.4112487733364105
      ],
      "translation": [
        -4.392245769500732,
        0.5605593323707581,
        0.10777807235717773
      ]
    },
    {
      "mesh": 0,
      "name": "Object_12"
    },
    {
      "mesh": 1,
      "name": "Object_13"
    },
    {
      "mesh": 2,
      "name": "Object_14"
    },
    {
      "children": [
        1,
        2,
        3
      ],
      "name": "Palo_3",
      "rotation": [
        0.9893212914466858,
        -0.14575108885765076,
        0,
        1.2549929806482396e-7
      ],
      "scale": [
        1.429341435432434,
        1.4293413162231445,
        1.4293415546417236
      ],
      "translation": [
        1.5775915384292603,
        1.9837989807128906,
        -3.719405174255371
      ]
    },
    {
      "name": "Pelota 1_0"
    },
    {
      "name": "Pelota 2_1",
      "translation": [
        2.4869744777679443,
        0,
        0
      ]
    },
    {
      "name": "Pelota 3_2",
      "translation": [
        -2.4533944129943848,
        0,
        0
      ]
    },
    {
      "children": [
        0,
        4,
        5,
        6,
        7
      ],
      "name": "GLTF_SceneRootNode",
      "rotation": [
        0.70710688829422,
        0,
        0,
        0.7071066498756409
      ]
    },
    {
      "children": [
        8
      ],
      "name": "root"
    },
    {
      "children": [
        9
      ],
      "name": "Sketchfab_model",
      "rotation": [
        -0.70710688829422,
        0,
        0,
        0.7071066498756409
      ],
      "scale": [
        0.0025356144178658724,
        0.0034237916115671396,
        0.001882500248029828
      ]
    }
  ],
  "materials": [
    {
      "doubleSided": true,
      "name": "Material.002",
      "pbrMetallicRoughness": {
        "baseColorFactor": [
          0.14731399714946747,
          0.028453199192881584,
          0.001477189944125712,
          1
        ],
        "metallicFactor": 0,
        "roughnessFactor": 0.5
      }
    },
    {
      "doubleSided": true,
      "name": "Material.003",
      "pbrMetallicRoughness": {
        "baseColorFactor": [
          0.800000011920929,
          0.800000011920929,
          0.800000011920929,
          1
        ],
        "roughnessFactor": 0.15941999852657318
      }
    },
    {
      "doubleSided": true,
      "name": "Material.004",
      "pbrMetallicRoughness": {
        "baseColorFactor": [
          0.3505550026893616,
          0.3505550026893616,
          0.3505550026893616,
          1
        ],
        "roughnessFactor": 0.5
      }
    }
  ],
  "meshes": [
    {
      "name": "Object_5",
      "primitives": [
        {
          "attributes": {
            "POSITION": 0,
            "NORMAL": 1,
            "TEXCOORD_0": 2
          },
          "indices": 3,
          "material": 0
        }
      ]
    },
    {
      "name": "Object_6",
      "primitives": [
        {
          "attributes": {
            "POSITION": 4,
            "NORMAL": 5,
            "TEXCOORD_0": 6
          },
          "indices": 7,
          "material": 1
        }
      ]
    },
    {
      "name": "Object_7",
      "primitives": [
        {
          "attributes": {
            "POSITION": 8,
            "NORMAL": 9,
            "TEXCOORD_0": 10
          },
          "indices": 11,
          "material": 2
        }
      ]
    }
  ],
  "accessors": [
    {
      "bufferView": 0,
      "componentType": 5126,
      "count": 3173,
      "max": [
        0.9319565296173096,
        0.9361497759819031,
        1.1412214040756226
      ],
      "min": [
        -2.247917413711548,
        -20.434757232666016,
        -0.5275030136108398
      ],
      "type": "VEC3"
    },
    {
      "bufferView": 1,
      "componentType": 5126,
      "count": 3173,
      "type": "VEC3"
    },
    {
      "bufferView": 2,
      "componentType": 5126,
      "count": 3173,
      "type": "VEC2"
    },
    {
      "bufferView": 3,
      "componentType": 5123,
      "count": 15360,
      "type": "SCALAR"
    },
    {
      "bufferView": 4,
      "componentType": 5126,
      "count": 2762,
      "max": [
        0.6165453195571899,
        0.7385852932929993,
        0.22530251741409302
      ],
      "min": [
        -1.9689608812332153,
        -14.541783332824707,
        -0.5676613450050354
      ],
      "type": "VEC3"
    },
    {
      "bufferView": 5,
      "componentType": 5126,
      "count": 2762,
      "type": "VEC3"
    },
    {
      "bufferView": 6,
      "componentType": 5126,
      "count": 2762,
      "type": "VEC2"
    },
    {
      "bufferView": 7,
      "componentType": 5123,
      "count": 13056,
      "type": "SCALAR"
    },
    {
      "bufferView": 8,
      "componentType": 5126,
      "count": 1770,
      "max": [
        0.6481119394302368,
        -1,
        0.3032399117946625
      ],
      "min": [
        0.04163229838013649,
        -1.388051152229309,
        -0.30323973298072815
      ],
      "type": "VEC3"
    },
    {
      "bufferView": 9,
      "componentType": 5126,
      "count": 1770,
      "type": "VEC3"
    },
    {
      "bufferView": 10,
      "componentType": 5126,
      "count": 1770,
      "type": "VEC2"
    },
    {
      "bufferView": 11,
      "componentType": 5123,
      "count": 4608,
      "type": "SCALAR"
    }
  ],
  "bufferViews": [
    {
      "buffer": 0,
      "byteLength": 38076,
      "byteOffset": 0,
      "target": 34962
    },
    {
      "buffer": 0,
      "byteLength": 38076,
      "byteOffset": 38076,
      "target": 34962
    },
    {
      "buffer": 0,
      "byteLength": 25384,
      "byteOffset": 76152,
      "target": 34962
    },
    {
      "buffer": 0,
      "byteLength": 30720,
      "byteOffset": 101536,
      "target": 34963
    },
    {
      "buffer": 0,
      "byteLength": 33144,
      "byteOffset": 132256,
      "target": 34962
    },
    {
      "buffer": 0,
      "byteLength": 33144,
      "byteOffset": 165400,
      "target": 34962
    },
    {
      "buffer": 0,
      "byteLength": 22096,
      "byteOffset": 198544,
      "target": 34962
    },
    {
      "buffer": 0,
      "byteLength": 26112,
      "byteOffset": 220640,
      "target": 34963
    },
    {
      "buffer": 0,
      "byteLength": 21240,
      "byteOffset": 246752,
      "target": 34962
    },
    {
      "buffer": 0,
      "byteLength": 21240,
      "byteOffset": 267992,
      "target": 34962
    },
    {
      "buffer": 0,
      "byteLength": 14160,
      "byteOffset": 289232,
      "target": 34962
    },
    {
      "buffer": 0,
      "byteLength": 9216,
      "byteOffset": 303392,
      "target": 34963
    }
  ],
  "buffers": [
    {
      "uri": "golf stick_data.bin",
      "byteLength": 312608
    }
  ]
}